<?xml version="1.0" encoding="UTF-8"?>
<svg version="1.1" viewBox="0 0 2048 484" width="1362" height="322" xmlns="http://www.w3.org/2000/svg">
<path transform="translate(221,25)" d="m0 0h31l27 3 25 6 22 8 22 11 17 11 13 10 11 10 8 7 7 8 11 13 12 18 13 25 9 25 5 20 3 21v43l-4 24-6 22-8 20-8 16-11 18-9 12-12 14-15 15-17 13-17 11-21 11-21 8-22 6-26 4h-43l-26-4-22-6-24-10-21-11-12-8-13-10-10-9-18-18-15-20-9-15-8-16-6-14-6-19-5-23-1-8-1-27 1-24 3-19 6-22 7-19 8-16 9-16 14-19 12-13 15-15 17-13 19-12 16-8 20-8 20-6 23-4z" fill="#1576F4"/>
<path transform="translate(907,166)" d="m0 0h134v31l-1 1h-127v31l100 1 10 3 8 6 6 7 3 7 1 7v36l-2 10-6 9-8 7-11 4h-134v-31l1-1h128v-32h-101l-10-3-8-6-6-8-3-7-1-8v-32l2-11 5-9 9-8z" fill="#545453"/>
<path transform="translate(1877,166)" d="m0 0h134v31l-1 1h-128v32h101l10 3 8 6 5 6 4 9 1 8v33l-2 10-4 8-8 8-9 4-5 1h-133v-32l128-1v-30l-100-1-10-3-8-6-5-6-4-9-1-6v-36l3-12 6-8 7-6z" fill="#1576F4"/>
<path transform="translate(1700,166)" d="m0 0h134v32h-128v32h101l10 3 9 7 6 9 2 6v46l-4 10-8 9-8 4-7 2h-133v-32h128v-32h-101l-11-4-7-5-6-9-3-9v-42l4-11 6-8 7-5z" fill="#1576F4"/>
<path transform="translate(1524,166)" d="m0 0h108l10 4 9 7 6 11 1 5v133h-32v-64h-96v64h-32v-135l4-10 7-8 8-5zm6 32v32h96v-32z" fill="#1576F4"/>
<path transform="translate(715,166)" d="m0 0h9l7 4 100 100 1-104h32v148l-3 6-6 5-3 1h-8l-6-3-101-101-1 104h-32v-149l4-6 5-4z" fill="#535352"/>
<path transform="translate(528,166)" d="m0 0h31l1 1v126l96 1v-128h32v131l-2 9-6 9-8 7-11 4h-107l-11-4-10-9-4-8-2-11v-127z" fill="#555554"/>
<path transform="translate(1171,166)" d="m0 0h134v32h-128v96h128v32h-134l-11-4-8-7-5-8-2-6v-110l4-10 7-8 8-5z" fill="#1576F4"/>
<path transform="translate(142,164)" d="m0 0 5 1 7 7 5 10 2 9v93l14-5 14-9 6-5-1-60-3-5-5-1-9 3-3-5 2-4 14-11 13-11 9-7 4 1 7 6 5 9 2 7 1 9 1 87 2 5 7-1 4-1 4 5-1 3-9 7-16 13-8 6-5-1-5-5-5-7-3-8-3-19-17 14-14 11-11 9-9 7-5-3-6-7-5-12-1-6-1-82-2-9-4-3-6 1-6 2-3-4 1-4 13-11 14-11z" fill="#FEFEFE"/>
<path transform="translate(1322,166)" d="m0 0h31v128h128l1 1v31h-134l-11-4-10-9-5-11-1-7v-128z" fill="#1576F4"/>
<path transform="translate(322,163)" d="m0 0h8l10 3 8 7 11 15 5 4 7 1 5-1 4 6-4 4-22 15-8 5-8-1-8-5-8-8-8-10-7-6-7-1-7 3-6 7-4 11-1 7v12l3 16 5 12 6 10 9 10 7 6 11 5 3 1h14l12-5 11-8h4l3 3-2 5-16 17-13 10-13 6-11 2h-13l-10-2-16-8-10-9-7-10-8-16-3-9-1-6v-18l2-10 5-13 7-11 9-11 16-16 14-11 12-6z" fill="#FEFEFE"/>
</svg>
